<svg version="1.1" id="Layer_1" xmlns="http://www.w3.org/2000/svg" xmlns:xlink="http://www.w3.org/1999/xlink" x="0px" y="0px"
	 width="100%" viewBox="0 0 513 514" enable-background="new 0 0 513 514" xml:space="preserve">
<path fill="#000000" opacity="1.000000" stroke="none" 
	d="
M0.999991,395.000000 
	C1.000000,263.728699 1.000000,132.457428 1.000000,1.000000 
	C171.357376,1.000000 341.714813,1.000000 512.536194,1.468657 
	C513.000122,133.311859 513.000732,264.686401 512.993958,396.060944 
	C512.993896,398.056458 512.901733,400.051971 512.595337,401.828186 
	C507.510101,393.309387 502.734406,384.978912 497.843079,376.716919 
	C487.983032,360.062195 478.060059,343.444763 468.062225,326.480774 
	C463.976257,319.246094 459.902435,312.391663 456.044617,305.417786 
	C454.209961,302.101196 451.706757,300.834381 447.935333,300.923828 
	C434.949829,301.231781 421.958679,301.303711 408.662170,301.279297 
	C406.877441,298.925690 405.191223,296.870789 403.954987,294.573761 
	C390.319702,269.238098 376.791809,243.844620 363.150299,218.512314 
	C358.200500,209.320511 353.024536,200.250473 347.881653,190.770355 
	C344.188202,183.036835 339.635559,182.510727 334.905701,188.938980 
	C332.932678,191.620483 331.011597,194.340164 329.041962,197.024200 
	C318.511414,211.374268 307.973022,225.718552 297.304382,239.729523 
	C292.539062,233.510620 288.003540,227.547592 283.255585,221.758820 
	C270.618439,206.351471 276.345856,207.729034 254.365005,208.033447 
	C250.552567,208.086258 248.862991,206.713882 247.278259,203.484192 
	C233.648468,175.706757 219.851761,148.011169 206.075790,120.305634 
	C205.200241,118.544785 204.082031,116.904587 202.999191,114.839958 
	C200.546997,109.701103 196.781754,107.821365 193.682388,110.706757 
	C185.468460,118.353569 175.774429,124.520882 169.958557,134.629791 
	C153.990616,162.384628 137.848282,190.039093 121.816025,217.757019 
	C118.507286,223.477463 115.376472,229.300812 111.909973,235.310425 
	C108.527779,240.836319 104.710899,245.848969 102.422997,251.482544 
	C98.429611,261.315582 92.355972,266.450531 81.373116,263.878052 
	C80.903061,263.767944 80.377785,263.917755 79.880341,263.896637 
	C75.033783,263.690613 72.059067,265.830109 69.695145,270.237915 
	C47.935902,310.810333 25.970430,351.272217 4.007467,391.735046 
	C3.323040,392.996033 2.016495,393.919281 0.999991,395.000000 
z"/>
<path fill="#000000" opacity="1.000000" stroke="none" 
	d="
M1.000000,513.000000 
	C1.000000,476.312439 1.000000,439.624878 1.392405,402.367188 
	C4.207828,402.610687 6.603998,404.014008 9.058968,404.125793 
	C16.015213,404.442505 22.995516,404.230743 30.306650,404.455566 
	C63.789276,404.743042 96.931587,404.808136 130.073929,404.830780 
	C131.033661,404.831421 131.993683,404.383270 133.423737,404.185699 
	C149.260269,404.217499 164.626617,404.207977 180.303925,404.431763 
	C185.251144,404.502594 189.887360,404.199341 194.523651,404.198120 
	C298.299774,404.171173 402.075867,404.178558 505.851990,404.170319 
	C508.181854,404.170105 510.511749,404.063385 512.905029,404.470825 
	C512.968384,440.851990 512.968384,476.768646 512.968384,513.000000 
	C342.015930,513.000000 171.507965,513.000000 1.000000,513.000000 
z"/>
<path fill="#007AA0" opacity="1.000000" stroke="none" 
	d="
M29.966347,404.227142 
	C22.995516,404.230743 16.015213,404.442505 9.058968,404.125793 
	C6.603998,404.014008 4.207828,402.610687 1.392405,401.898529 
	C1.000000,399.958344 1.000000,397.916656 0.999991,395.437500 
	C2.016495,393.919281 3.323040,392.996033 4.007467,391.735046 
	C25.970430,351.272217 47.935902,310.810333 69.695145,270.237915 
	C72.059067,265.830109 75.033783,263.690613 79.880341,263.896637 
	C80.377785,263.917755 80.903061,263.767944 81.373116,263.878052 
	C92.355972,266.450531 98.429611,261.315582 102.422997,251.482544 
	C104.710899,245.848969 108.527779,240.836319 112.363533,235.316895 
	C127.033012,236.838043 139.451569,229.662872 153.236984,227.738617 
	C153.507889,230.440598 153.785049,232.716263 153.956100,234.999878 
	C154.539902,242.793716 155.113586,250.588547 155.634079,258.386780 
	C155.852493,261.658905 156.170059,264.875580 160.034988,265.888092 
	C164.070923,266.945374 166.082169,264.331726 167.959015,261.352997 
	C176.203674,248.267929 184.550751,235.247253 192.759369,222.139786 
	C193.787216,220.498535 194.645569,218.526245 194.846832,216.629303 
	C196.021973,205.552872 197.109192,194.463486 197.980225,183.359192 
	C199.761627,160.648682 201.387054,137.925964 203.076721,115.208267 
	C204.082031,116.904587 205.200241,118.544785 206.075790,120.305634 
	C219.851761,148.011169 233.648468,175.706757 247.278259,203.484192 
	C248.862991,206.713882 250.552567,208.086258 254.365005,208.033447 
	C276.345856,207.729034 270.618439,206.351471 283.255585,221.758820 
	C288.003540,227.547592 292.539062,233.510620 297.182739,240.072784 
	C282.601044,260.930359 267.987457,281.094543 253.438843,301.305511 
	C251.435059,304.089172 249.753632,307.104889 247.632233,310.176270 
	C246.747360,310.916534 246.054901,311.421936 245.573257,312.081299 
	C227.503922,336.819733 209.389297,361.525635 191.450104,386.358215 
	C187.317688,392.078552 183.795792,398.239960 179.992950,404.198425 
	C164.626617,404.207977 149.260269,404.217499 133.430588,403.762573 
	C136.437103,388.637054 139.998077,373.996765 143.334839,359.305511 
	C144.797684,352.864838 146.157654,346.360138 146.895508,339.809174 
	C147.416763,335.181122 145.145691,333.218140 140.524963,334.134552 
	C137.191833,334.795593 133.886475,336.334442 130.959335,338.121552 
	C127.126381,340.461731 125.200737,339.517914 123.265327,335.702850 
	C118.527763,326.364197 113.439194,317.203308 108.473480,307.980804 
	C104.371346,300.362122 100.070076,300.087250 95.297623,307.113831 
	C82.516190,325.932159 69.680435,344.713928 56.970280,363.580292 
	C47.881943,377.070618 38.961636,390.674133 29.966347,404.227142 
z"/>
<path fill="#FFFFFF" opacity="1.000000" stroke="none" 
	d="
M1.000002,513.500000 
	C171.507965,513.000000 342.015930,513.000000 512.968384,513.000000 
	C512.968384,476.768646 512.968384,440.851990 512.996460,404.148621 
	C512.967224,402.923737 512.909912,402.485626 512.852600,402.047485 
	C512.901733,400.051971 512.993896,398.056458 512.993958,396.060944 
	C513.000732,264.686401 513.000122,133.311859 513.000061,1.468658 
	C513.333313,2.166668 513.953735,3.332461 513.957275,4.500130 
	C514.017090,24.166609 514.000000,43.833324 514.000000,63.499985 
	C514.000000,213.999954 514.000000,364.499908 514.000000,514.999939 
	C344.500092,515.000000 175.000168,515.002563 5.500255,514.958618 
	C4.000091,514.958252 2.500085,514.333313 1.000002,513.500000 
z"/>
<path fill="#005F7E" opacity="1.000000" stroke="none" 
	d="
M512.595337,401.828186 
	C512.909912,402.485626 512.967224,402.923737 512.933105,403.684113 
	C510.511749,404.063385 508.181854,404.170105 505.851990,404.170319 
	C402.075867,404.178558 298.299774,404.171173 194.523651,404.198120 
	C189.887360,404.199341 185.251144,404.502594 180.303909,404.431763 
	C183.795792,398.239960 187.317688,392.078552 191.450104,386.358215 
	C209.389297,361.525635 227.503922,336.819733 245.573257,312.081299 
	C246.054901,311.421936 246.747360,310.916534 248.019211,310.112976 
	C265.606323,305.210388 282.515747,300.534149 299.735077,295.772217 
	C300.509674,305.468933 301.309692,314.566132 301.926514,323.675751 
	C302.160339,327.129089 302.318695,330.579193 306.271698,331.776520 
	C310.443542,333.040100 312.658539,330.323486 314.644592,327.173737 
	C322.178864,315.224945 329.856415,303.365967 337.314453,291.370209 
	C338.583649,289.328827 339.565125,286.830688 339.787384,284.459961 
	C341.664337,264.437469 343.332458,244.395416 345.066376,224.359497 
	C346.025085,213.281036 346.989777,202.203064 347.951782,191.124878 
	C353.024536,200.250473 358.200500,209.320511 363.150299,218.512314 
	C376.791809,243.844620 390.319702,269.238098 403.954987,294.573761 
	C405.191223,296.870789 406.877441,298.925690 408.725037,301.598511 
	C409.205627,302.403778 409.230988,302.792145 409.438202,302.990692 
	C426.158997,319.010498 442.833313,335.080322 459.734558,350.907745 
	C461.206787,352.286469 464.732361,353.126556 466.312073,352.306244 
	C468.169800,351.341522 470.024994,348.270813 469.986328,346.147919 
	C469.868713,339.693665 468.838135,333.256042 468.163055,326.811951 
	C478.060059,343.444763 487.983032,360.062195 497.843079,376.716919 
	C502.734406,384.978912 507.510101,393.309387 512.595337,401.828186 
z"/>
<path fill="#CEDCE0" opacity="1.000000" stroke="none" 
	d="
M202.999207,114.839958 
	C201.387054,137.925964 199.761627,160.648682 197.980225,183.359192 
	C197.109192,194.463486 196.021973,205.552872 194.846832,216.629303 
	C194.645569,218.526245 193.787216,220.498535 192.759369,222.139786 
	C184.550751,235.247253 176.203674,248.267929 167.959015,261.352997 
	C166.082169,264.331726 164.070923,266.945374 160.034988,265.888092 
	C156.170059,264.875580 155.852493,261.658905 155.634079,258.386780 
	C155.113586,250.588547 154.539902,242.793716 153.956100,234.999878 
	C153.785049,232.716263 153.507889,230.440598 153.236984,227.738617 
	C139.451569,229.662872 127.033012,236.838043 112.617210,235.083191 
	C115.376472,229.300812 118.507286,223.477463 121.816025,217.757019 
	C137.848282,190.039093 153.990616,162.384628 169.958557,134.629791 
	C175.774429,124.520882 185.468460,118.353569 193.682388,110.706757 
	C196.781754,107.821365 200.546997,109.701103 202.999207,114.839958 
z"/>
<path fill="#CEDCE0" opacity="1.000000" stroke="none" 
	d="
M347.881653,190.770355 
	C346.989777,202.203064 346.025085,213.281036 345.066376,224.359497 
	C343.332458,244.395416 341.664337,264.437469 339.787384,284.459961 
	C339.565125,286.830688 338.583649,289.328827 337.314453,291.370209 
	C329.856415,303.365967 322.178864,315.224945 314.644592,327.173737 
	C312.658539,330.323486 310.443542,333.040100 306.271698,331.776520 
	C302.318695,330.579193 302.160339,327.129089 301.926514,323.675751 
	C301.309692,314.566132 300.509674,305.468933 299.735077,295.772217 
	C282.515747,300.534149 265.606323,305.210388 248.309937,309.949890 
	C249.753632,307.104889 251.435059,304.089172 253.438843,301.305511 
	C267.987457,281.094543 282.601044,260.930359 297.315674,240.408112 
	C307.973022,225.718552 318.511414,211.374268 329.041962,197.024200 
	C331.011597,194.340164 332.932678,191.620483 334.905701,188.938980 
	C339.635559,182.510727 344.188202,183.036835 347.881653,190.770355 
z"/>
<path fill="#CDDBDF" opacity="1.000000" stroke="none" 
	d="
M468.062225,326.480774 
	C468.838135,333.256042 469.868713,339.693665 469.986328,346.147919 
	C470.024994,348.270813 468.169800,351.341522 466.312073,352.306244 
	C464.732361,353.126556 461.206787,352.286469 459.734558,350.907745 
	C442.833313,335.080322 426.158997,319.010498 409.438202,302.990692 
	C409.230988,302.792145 409.205627,302.403778 409.032532,301.784790 
	C421.958679,301.303711 434.949829,301.231781 447.935333,300.923828 
	C451.706757,300.834381 454.209961,302.101196 456.044617,305.417786 
	C459.902435,312.391663 463.976257,319.246094 468.062225,326.480774 
z"/>
<path fill="#005F7D" opacity="1.000000" stroke="none" 
	d="
M30.306652,404.455566 
	C38.961636,390.674133 47.881943,377.070618 56.970280,363.580292 
	C69.680435,344.713928 82.516190,325.932159 95.297623,307.113831 
	C100.070076,300.087250 104.371346,300.362122 108.473480,307.980804 
	C113.439194,317.203308 118.527763,326.364197 123.265327,335.702850 
	C125.200737,339.517914 127.126381,340.461731 130.959335,338.121552 
	C133.886475,336.334442 137.191833,334.795593 140.524963,334.134552 
	C145.145691,333.218140 147.416763,335.181122 146.895508,339.809174 
	C146.157654,346.360138 144.797684,352.864838 143.334839,359.305511 
	C139.998077,373.996765 136.437103,388.637054 132.960388,403.721191 
	C131.993683,404.383270 131.033661,404.831421 130.073929,404.830780 
	C96.931587,404.808136 63.789276,404.743042 30.306652,404.455566 
z"/>
</svg>